<svg viewBox="0 0 200 224" fill="none" xmlns="http://www.w3.org/2000/svg" role="img" aria-label="Maestro">
  <!-- Cream shield for dark surfaces (the founder-provided colorway). Checker is cut out
       via a mask so it reads correctly on any dark background. -->
  <mask id="maestro-cut">
    <path d="M100 12 C126 12 150 15 166 21 C179 26 186 34 186 52 C186 74 186 96 178 124 C169 156 143 188 100 210 C57 188 31 156 22 124 C14 96 14 74 14 52 C14 34 21 26 34 21 C50 15 74 12 100 12 Z" fill="#fff"/>
    <g fill="#000">
      <rect x="66" y="64" width="20" height="20" rx="1.5"/>
      <rect x="114" y="64" width="20" height="20" rx="1.5"/>
      <rect x="42" y="88" width="20" height="20" rx="1.5"/>
      <rect x="90" y="88" width="20" height="20" rx="1.5"/>
      <rect x="138" y="88" width="20" height="20" rx="1.5"/>
      <rect x="66" y="112" width="20" height="20" rx="1.5"/>
      <rect x="114" y="112" width="20" height="20" rx="1.5"/>
      <rect x="90" y="136" width="20" height="20" rx="1.5"/>
    </g>
  </mask>
  <path d="M100 12 C126 12 150 15 166 21 C179 26 186 34 186 52 C186 74 186 96 178 124 C169 156 143 188 100 210 C57 188 31 156 22 124 C14 96 14 74 14 52 C14 34 21 26 34 21 C50 15 74 12 100 12 Z" fill="#ECEBE4" mask="url(#maestro-cut)"/>
</svg>
